<svg width="16" height="16" viewBox="0 0 16 16" fill="none" xmlns="http://www.w3.org/2000/svg">
<path d="M8.00001 9.53334C8.60001 8.97778 9.06667 8.53334 9.40001 8.2C9.73334 7.86667 9.99445 7.58889 10.1833 7.36667C10.3611 7.14445 10.4861 6.93889 10.5583 6.75C10.6306 6.56111 10.6667 6.35556 10.6667 6.13334C10.6667 5.73334 10.5222 5.38889 10.2333 5.1C9.94445 4.81111 9.60001 4.66667 9.20001 4.66667C8.96667 4.66667 8.74167 4.71389 8.52501 4.80834C8.30834 4.90278 8.13334 5.03334 8.00001 5.2C7.86667 5.03334 7.69445 4.90278 7.48334 4.80834C7.27223 4.71389 7.04445 4.66667 6.80001 4.66667C6.40001 4.66667 6.05556 4.81111 5.76667 5.1C5.47778 5.38889 5.33334 5.73334 5.33334 6.13334C5.33334 6.36667 5.36667 6.57222 5.43334 6.75C5.50001 6.92778 5.62223 7.12778 5.80001 7.35C5.98889 7.57222 6.24445 7.85 6.56667 8.18334C6.88889 8.51667 7.36667 8.96667 8.00001 9.53334ZM8.00001 12.9C9.35556 11.6556 10.3611 10.525 11.0167 9.50834C11.6722 8.49167 12 7.58889 12 6.8C12 5.58889 11.6139 4.59722 10.8417 3.825C10.0694 3.05278 9.12223 2.66667 8.00001 2.66667C6.87778 2.66667 5.93056 3.05278 5.15834 3.825C4.38612 4.59722 4.00001 5.58889 4.00001 6.8C4.00001 7.58889 4.32778 8.49167 4.98334 9.50834C5.63889 10.525 6.64445 11.6556 8.00001 12.9ZM8.00001 14.6667C6.21112 13.1444 4.87501 11.7306 3.99167 10.425C3.10834 9.11945 2.66667 7.91111 2.66667 6.8C2.66667 5.13334 3.20278 3.80556 4.27501 2.81667C5.34723 1.82778 6.58889 1.33334 8.00001 1.33334C9.41112 1.33334 10.6528 1.82778 11.725 2.81667C12.7972 3.80556 13.3333 5.13334 13.3333 6.8C13.3333 7.91111 12.8917 9.11945 12.0083 10.425C11.125 11.7306 9.78889 13.1444 8.00001 14.6667Z" fill="#212121"/>
</svg>
