<svg width="246" height="8" viewBox="0 0 246 8" fill="none" xmlns="http://www.w3.org/2000/svg">
<path d="M0.701233 4C4.7679 8 8.83457 8 12.9012 4C16.9679 -1.82788e-07 21.0346 -1.82788e-07 25.1012 4C29.1679 8 33.2346 8 37.3012 4C41.3679 -1.82788e-07 45.4346 -1.82788e-07 49.5012 4C53.5679 8 57.6346 8 61.7012 4C65.7679 -1.82788e-07 69.8346 -1.82788e-07 73.9012 4C77.9679 8 82.0346 8 86.1012 4C90.1679 -1.82788e-07 94.2346 -1.82788e-07 98.3012 4C102.368 8 106.435 8 110.501 4C114.568 -1.82788e-07 118.635 -1.82788e-07 122.701 4C126.768 8 130.835 8 134.901 4C138.968 -1.82788e-07 143.035 -1.82788e-07 147.101 4C151.168 8 155.235 8 159.301 4C163.368 -1.82788e-07 167.435 -1.82788e-07 171.501 4C175.568 8 179.635 8 183.701 4C187.768 -1.82788e-07 191.835 -1.82788e-07 195.901 4C199.968 8 204.035 8 208.101 4C212.168 -1.82788e-07 216.235 -1.82788e-07 220.301 4C224.368 8 228.435 8 232.501 4C236.568 -1.82788e-07 240.635 -1.82788e-07 244.701 4" stroke="#212121" stroke-width="2"/>
</svg>
